<svg xmlns="http://www.w3.org/2000/svg" viewBox="0 0 48 60" x="0px" y="0px"><path d="M26.71,22.71l10.29-10.29v6.59h2V10c0-.55-.45-1-1-1h-9v2h6.59l-10.29,10.29,1.41,1.41Z" fill="#ffffff"/><path d="M42.03,30.51l-1.53-1.53c-1.27-1.27-3.02-1.92-4.81-1.79-1.79,.13-3.43,1.04-4.49,2.48l-.09,.12c-.72,.97-1.83,1.59-3.03,1.68-1.22,.09-2.39-.35-3.25-1.21l-7.01-7.01c-.87-.87-1.3-2.06-1.2-3.28,.1-1.22,.73-2.33,1.72-3.04,1.47-1.05,2.4-2.7,2.55-4.5,.15-1.81-.5-3.58-1.78-4.86l-1.61-1.61c-1.22-1.22-2.89-1.89-4.63-1.8-1.72,.08-3.35,.88-4.45,2.21-6.33,7.6-5.83,18.61,1.16,25.61l6.45,6.45c3.72,3.72,8.56,5.6,13.43,5.6,4.3,0,8.61-1.47,12.17-4.44h0c1.33-1.11,2.13-2.73,2.21-4.45,.08-1.72-.58-3.41-1.8-4.63Zm-1.69,7.55l.64,.77-.64-.77c-6.8,5.67-16.65,5.22-22.91-1.04l-6.45-6.45c-6.26-6.26-6.71-16.11-1.04-22.91,.76-.91,1.83-1.44,3.01-1.49,.07,0,.13,0,.2,0,1.11,0,2.14,.43,2.93,1.22l1.61,1.61c.87,.87,1.3,2.06,1.2,3.28-.1,1.22-.73,2.33-1.72,3.04-1.47,1.06-2.4,2.7-2.55,4.5-.15,1.81,.5,3.58,1.78,4.86l7.01,7.01c1.27,1.27,3.02,1.92,4.81,1.79,1.79-.13,3.43-1.04,4.49-2.48l.09-.12c.72-.97,1.83-1.59,3.03-1.68,1.21-.09,2.39,.35,3.25,1.21l1.53,1.53c.84,.84,1.27,1.95,1.21,3.13-.05,1.18-.58,2.25-1.49,3.01Z" fill="#ffffff"/><text x="0" y="63" fill="#ffffff" font-size="5px" font-weight="bold" font-family="'Helvetica Neue', Helvetica, Arial-Unicode, Arial, Sans-serif">Created by Branken Spin</text><text x="0" y="68" fill="#ffffff" font-size="5px" font-weight="bold" font-family="'Helvetica Neue', Helvetica, Arial-Unicode, Arial, Sans-serif">from the Noun Project</text></svg>