<?xml version="1.0" encoding="UTF-8"?>
<!DOCTYPE svg PUBLIC "-//W3C//DTD SVG 1.1//EN" "http://www.w3.org/Graphics/SVG/1.1/DTD/svg11.dtd">
<svg xmlns="http://www.w3.org/2000/svg" version="1.1" width="487px" height="194px" style="shape-rendering:geometricPrecision; text-rendering:geometricPrecision; image-rendering:optimizeQuality; fill-rule:evenodd; clip-rule:evenodd" xmlns:xlink="http://www.w3.org/1999/xlink">
<g><path style="opacity:1" fill="#fefefe" d="M -0.5,-0.5 C 161.833,-0.5 324.167,-0.5 486.5,-0.5C 486.5,64.1667 486.5,128.833 486.5,193.5C 324.167,193.5 161.833,193.5 -0.5,193.5C -0.5,128.833 -0.5,64.1667 -0.5,-0.5 Z"/></g>
<g><path style="opacity:1" fill="#cf962d" d="M 419.5,11.5 C 420.5,11.5 421.5,11.5 422.5,11.5C 413.546,39.9206 397.713,63.5873 375,82.5C 374.448,103.737 363.948,117.57 343.5,124C 335.266,125.803 326.933,126.803 318.5,127C 322.132,129.63 325.465,132.63 328.5,136C 327.975,136.692 327.308,137.192 326.5,137.5C 321.179,133.511 316.179,129.178 311.5,124.5C 314.145,120.721 317.145,117.221 320.5,114C 321.448,113.517 322.448,113.351 323.5,113.5C 322.221,117.302 319.888,120.469 316.5,123C 330.319,124.295 343.319,121.628 355.5,115C 366.122,107.59 371.288,97.4233 371,84.5C 357.599,92.3022 344.099,92.4688 330.5,85C 321.323,79.4709 318.49,71.6376 322,61.5C 329.689,52.5093 339.189,50.0093 350.5,54C 363.248,57.536 371.248,65.7027 374.5,78.5C 386.299,68.8676 396.133,57.5342 404,44.5C 410.255,33.9916 415.421,22.9916 419.5,11.5 Z"/></g>
<g><path style="opacity:1" fill="#fefdfb" d="M 335.5,55.5 C 351.537,54.5945 363.037,61.2612 370,75.5C 370.667,77.5 370.667,79.5 370,81.5C 357.258,89.2497 344.425,89.4164 331.5,82C 319.853,71.0196 321.187,62.1863 335.5,55.5 Z"/></g>
<g><path style="opacity:1" fill="#456666" d="M 195.5,73.5 C 193.748,73.4176 192.748,74.2509 192.5,76C 193.609,78.0466 194.276,80.2133 194.5,82.5C 194.5,83.5 194.5,84.5 194.5,85.5C 193.5,85.5 192.5,85.5 191.5,85.5C 189.999,84.2485 188.332,83.2485 186.5,82.5C 183.442,81.2626 180.776,82.096 178.5,85C 177.207,85.49 175.873,85.6567 174.5,85.5C 174.411,82.2914 174.744,79.1248 175.5,76C 173.408,73.1211 171.075,70.4544 168.5,68C 168.645,67.228 168.978,66.5613 169.5,66C 172.882,65.8236 176.215,65.3236 179.5,64.5C 180.407,61.9433 181.407,59.4433 182.5,57C 184.112,56.2797 185.612,56.4464 187,57.5C 187.452,60.1494 188.286,62.6494 189.5,65C 192.758,65.2117 195.924,65.7117 199,66.5C 199.667,67.5 199.667,68.5 199,69.5C 197.624,70.7051 196.458,72.0384 195.5,73.5 Z"/></g>
<g><path style="opacity:1" fill="#3f6063" d="M 126.5,21.5 C 127.497,21.4701 128.164,21.9701 128.5,23C 121.175,42.9767 106.842,53.9767 85.5,56C 77.7522,59.328 74.5855,65.1614 76,73.5C 77.2205,79.166 79.2205,84.4993 82,89.5C 82.2163,87.6161 82.883,85.9494 84,84.5C 84.1747,87.1572 84.0081,89.8239 83.5,92.5C 80.314,92.6632 77.6473,91.6632 75.5,89.5C 76.6869,89.4464 78.0202,89.1131 79.5,88.5C 67.6627,65.3362 74.6627,52.8362 100.5,51C 113.982,45.3548 122.649,35.5215 126.5,21.5 Z"/></g>
<g><path style="opacity:1" fill="#f9f0e5" d="M 186.5,82.5 C 188.332,83.2485 189.999,84.2485 191.5,85.5C 191.918,86.2216 192.584,86.7216 193.5,87C 180.469,99.9757 177.302,115.142 184,132.5C 196.282,153.151 213.782,159.318 236.5,151C 254.355,140.449 261.189,124.949 257,104.5C 248.089,83.2936 232.255,74.4603 209.5,78C 204.527,79.237 200.027,81.4037 196,84.5C 195.722,83.5842 195.222,82.9175 194.5,82.5C 194.276,80.2133 193.609,78.0466 192.5,76C 192.748,74.2509 193.748,73.4176 195.5,73.5C 219.518,62.2705 240.351,66.6039 258,86.5C 270.938,106.75 270.604,126.75 257,146.5C 242.623,161.807 225.123,166.974 204.5,162C 179.887,151.611 169.053,133.111 172,106.5C 173.291,99.5849 175.958,93.2516 180,87.5C 181.777,85.2101 183.944,83.5434 186.5,82.5 Z"/></g>
<g><path style="opacity:1" fill="#efdfbe" d="M 191.5,85.5 C 192.5,85.5 193.5,85.5 194.5,85.5C 194.5,84.5 194.5,83.5 194.5,82.5C 195.222,82.9175 195.722,83.5842 196,84.5C 200.027,81.4037 204.527,79.237 209.5,78C 232.255,74.4603 248.089,83.2936 257,104.5C 261.189,124.949 254.355,140.449 236.5,151C 213.782,159.318 196.282,153.151 184,132.5C 177.302,115.142 180.469,99.9757 193.5,87C 192.584,86.7216 191.918,86.2216 191.5,85.5 Z"/></g>
<g><path style="opacity:1" fill="#e8ce9b" d="M 211.5,82.5 C 239.672,80.5122 253.839,93.5122 254,121.5C 248.189,142.504 234.355,151.671 212.5,149C 194.643,142.768 186.143,130.268 187,111.5C 189.623,97.0509 197.79,87.3843 211.5,82.5 Z"/></g>
<g><path style="opacity:1" fill="#cd9124" d="M 210.5,85.5 C 236.999,83.1734 250.165,95.1734 250,121.5C 244.054,140.394 231.22,148.561 211.5,146C 194.222,139.957 186.722,127.79 189,109.5C 192.182,97.8237 199.348,89.8237 210.5,85.5 Z"/></g>
<g><path style="opacity:1" fill="#fbf7f1" d="M 230.5,107.5 C 231.5,107.5 232.5,107.5 233.5,107.5C 233.657,108.873 233.49,110.207 233,111.5C 227.956,116.879 222.623,121.879 217,126.5C 213.714,124.218 210.714,121.551 208,118.5C 207.167,115.333 208.333,114.167 211.5,115C 213.35,117.018 215.35,118.851 217.5,120.5C 222.188,116.479 226.521,112.146 230.5,107.5 Z"/></g>
<g><path style="opacity:1" fill="#456767" d="M 403.5,130.5 C 404.822,130.33 405.989,130.663 407,131.5C 408.341,134.022 409.174,136.689 409.5,139.5C 412.85,139.335 416.183,139.502 419.5,140C 420.022,140.561 420.355,141.228 420.5,142C 417.968,144.447 415.634,147.114 413.5,150C 414.566,153.094 415.232,156.26 415.5,159.5C 413.801,159.66 412.134,159.494 410.5,159C 409.073,157.203 407.24,156.036 405,155.5C 402.047,156.951 399.213,158.618 396.5,160.5C 395.914,160.291 395.414,159.957 395,159.5C 394.458,156.202 394.958,153.035 396.5,150C 393.968,147.553 391.634,144.886 389.5,142C 389.645,141.228 389.978,140.561 390.5,140C 393.5,139.667 396.5,139.333 399.5,139C 400.762,136.083 402.095,133.249 403.5,130.5 Z"/></g>
<g><path style="opacity:1" fill="#446667" d="M 69.5,147.5 C 70.8221,147.33 71.9887,147.663 73,148.5C 73.7804,151.512 74.9471,154.345 76.5,157C 87.8377,156.216 89.171,159.049 80.5,165.5C 80.1667,166.333 79.8333,167.167 79.5,168C 80.0215,170.21 80.6882,172.377 81.5,174.5C 81.2534,177.082 79.92,177.915 77.5,177C 75.5471,175.367 73.3804,174.201 71,173.5C 68.2221,174.556 65.5554,175.889 63,177.5C 62.228,177.355 61.5613,177.022 61,176.5C 60.7399,173.423 61.2399,170.423 62.5,167.5C 60.3093,164.811 57.976,162.311 55.5,160C 55.6448,159.228 55.9781,158.561 56.5,158C 59.5,157.667 62.5,157.333 65.5,157C 66.7388,153.781 68.0722,150.614 69.5,147.5 Z"/></g>
</svg>
